# xmcd
#
# Track frame offsets:
# 150
# 12407
# 24822
# 43255
# 59370
# 74750
# 87865
# 104112
# 116537
# 131645
# 144972
# 157487
# 171095
# 189057
# 202582
# 222255
# 235890
# 251875
# 264935
# 276810
#
# Disc length: 3884 seconds
#
#
# Revision: 0
# Processed by: cddbd v1.4PL0 Copyright (c) Steve Scherf et al.
# Submitted via: FreeRIP 2.11 
#
DISCID=240f2a14
DTITLE=Charlie Rich - 20 Country Classics
DYEAR=1999
DGENRE=Country
TTITLE0=You're Gonna Love Yourself In The Morning
TTITLE1=Somewhere Theres A Love Song
TTITLE2=She Knows Just How To Touch Me
TTITLE3=The Fool Strikes Again
TTITLE4=I Lost My Head
TTITLE5=Life Goes On
TTITLE6=I'd Build A Bridge
TTITLE7=Putting In Overtime At Home
TTITLE8=Standing Tall
TTITLE9=Ghost Of Another Man
TTITLE10=Keep The Night Away 
TTITLE11=Walls
TTITLE12=The Saddest Love Song
TTITLE13=Lovers
TTITLE14=Let Me Touch Where She's Been
TTITLE15=I'd Even Let You Go
TTITLE16=Lady
TTITLE17=I Loved You All The Way
TTITLE18=Wishful Thinking
TTITLE19=The Lovin' Kind
EXTD=
EXTT0=
EXTT1=
EXTT2=
EXTT3=
EXTT4=
EXTT5=
EXTT6=
EXTT7=
EXTT8=
EXTT9=
EXTT10=
EXTT11=
EXTT12=
EXTT13=
EXTT14=
EXTT15=
EXTT16=
EXTT17=
EXTT18=
EXTT19=
PLAYORDER=
